<svg xmlns="http://www.w3.org/2000/svg" xmlns:xlink="http://www.w3.org/1999/xlink" width="2950" height="800" viewBox="0 0 2950 800"><defs><linearGradient id="a" y1="-0.034" x2="1" y2="1.034" gradientUnits="objectBoundingBox"><stop offset="0" stop-color="#e93323"/><stop offset="0.232" stop-color="#e93724"/><stop offset="0.517" stop-color="#fced4f"/><stop offset="0.812" stop-color="#eb398e"/><stop offset="1" stop-color="#ea3390"/></linearGradient><clipPath id="c"><rect width="2950" height="800"/></clipPath></defs><g id="b" clip-path="url(#c)"><g transform="translate(-51.979 -25.258)"><path d="M800,240c0-103.093-83.573-186.667-186.667-186.667S426.667,136.907,426.667,240,510.24,426.667,613.333,426.667,800,343.093,800,240m53.333,0c0,132.533-107.467,240-240,240a237.508,237.508,0,0,1-31.947-2.133L162.56,800,0,640,373.333,235.733V240c0-132.533,107.467-240,240-240s240,107.467,240,240M382.187,304.8,74.24,638.24l92.587,91.2,350.4-269.493a240.636,240.636,0,0,1-135.04-155.2Z" transform="translate(66 25.258)" fill="url(#a)"/><path d="M39.5-354H188.4a227.937,227.937,0,0,1,72.05,11.475,175.061,175.061,0,0,1,61.376,34.957q26.685,23.483,42.7,58.974t16.011,83.524q0,48.567-18.413,84.058T314.623-22.3a202.57,202.57,0,0,1-64.578,34.691Q214.554,23.86,180.4,23.86H39.5ZM156.914-36.982a238.17,238.17,0,0,0,59.508-7.2q28.019-7.2,48.834-22.415A106.437,106.437,0,0,0,298.078-106.1q12.008-24.283,12.008-58.974,0-34.157-10.674-58.707t-29.62-39.761q-18.946-15.21-44.831-22.415t-56.839-7.2H106.746V-36.982ZM489.943-81.813q3.2,28.82,22.415,44.831t46.432,16.011q24.017,0,40.294-9.873a111.7,111.7,0,0,0,28.553-24.817l45.9,34.691Q651.121,6.782,623.369,18.523A147.8,147.8,0,0,1,565.2,30.265a153.753,153.753,0,0,1-54.437-9.607,130.569,130.569,0,0,1-44.3-27.219A129.157,129.157,0,0,1,436.84-48.99Q425.9-73.807,425.9-104.228t10.941-55.238a129.157,129.157,0,0,1,29.62-42.429,130.569,130.569,0,0,1,44.3-27.219,153.754,153.754,0,0,1,54.437-9.607q26.685,0,48.834,9.34a104.731,104.731,0,0,1,37.893,26.952q15.744,17.612,24.55,43.5t8.806,59.508v17.612Zm131.29-48.033q-.534-28.286-17.612-44.564t-47.5-16.278q-28.82,0-45.631,16.545t-20.547,44.3ZM1051.4-232.316h64.044v40.561h1.067q10.674-22.415,30.421-34.691t45.365-12.275a61.19,61.19,0,0,1,11.474,1.067q5.6,1.067,11.475,2.668v61.909q-8.006-2.135-15.744-3.469a89.42,89.42,0,0,0-15.211-1.334q-22.415,0-36.025,8.272t-20.814,18.946a63,63,0,0,0-9.607,21.348q-2.4,10.674-2.4,16.011V23.86H1051.4Zm194.267,0h70.448l71.516,177.722h1.067l64.044-177.722h66.713L1398.3,78.831a195.881,195.881,0,0,1-15.21,31.755,91.178,91.178,0,0,1-19.48,22.949,73.555,73.555,0,0,1-26.418,13.876q-15.21,4.536-36.558,4.536a189.746,189.746,0,0,1-49.1-6.4l8.005-57.64a135.55,135.55,0,0,0,15.744,4.536,76.088,76.088,0,0,0,16.812,1.868,77.869,77.869,0,0,0,19.747-2.135,34.315,34.315,0,0,0,22.949-18.413q3.736-7.2,8.005-17.345l12.275-30.421ZM1732.4-155.463a102.194,102.194,0,0,0-23.483-18.68,50.413,50.413,0,0,0-25.084-6.938q-17.612,0-31.488,6.4a74.44,74.44,0,0,0-23.75,17.078,72.326,72.326,0,0,0-14.944,24.55,83.328,83.328,0,0,0-5.07,28.82,83.328,83.328,0,0,0,5.07,28.82,72.325,72.325,0,0,0,14.944,24.55,74.44,74.44,0,0,0,23.75,17.078q13.876,6.4,31.488,6.4a63.384,63.384,0,0,0,27.752-6.138,60.387,60.387,0,0,0,21.882-17.879l42.7,45.9a98.589,98.589,0,0,1-22.149,16.545,151.015,151.015,0,0,1-25.351,11.208,154.706,154.706,0,0,1-24.55,6.138,131.7,131.7,0,0,1-20.281,1.868,153.753,153.753,0,0,1-54.437-9.607,130.569,130.569,0,0,1-44.3-27.219,129.158,129.158,0,0,1-29.62-42.429q-10.941-24.817-10.941-55.238t10.941-55.238A129.158,129.158,0,0,1,1585.1-201.9a130.569,130.569,0,0,1,44.3-27.219,153.754,153.754,0,0,1,54.438-9.607,139.372,139.372,0,0,1,49.367,9.34,112.343,112.343,0,0,1,43.5,29.62Zm218.817-5.871q-18.68-26.151-50.168-26.151a53.649,53.649,0,0,0-25.084,6.4q-12.275,6.4-12.275,20.814,0,11.741,10.14,17.078t25.618,9.073q15.477,3.736,33.356,7.739A131.2,131.2,0,0,1,1966.16-114.1a72.992,72.992,0,0,1,25.618,22.682q10.14,14.41,10.14,39.494,0,22.949-9.873,38.693a77.541,77.541,0,0,1-25.618,25.351,113.7,113.7,0,0,1-35.491,13.876,186.4,186.4,0,0,1-39.494,4.27q-29.887,0-54.971-8.539T1791.64-9.229l42.7-40.028a120.259,120.259,0,0,0,26.418,22.682q14.143,8.806,34.424,8.806a68.741,68.741,0,0,0,14.41-1.6,46.816,46.816,0,0,0,13.876-5.337,33.015,33.015,0,0,0,10.407-9.34,21.911,21.911,0,0,0,4-13.076q0-13.343-10.14-19.747t-25.618-10.407q-15.477-4-33.356-7.472A129.237,129.237,0,0,1,1835.4-95.956a70.09,70.09,0,0,1-25.618-21.615q-10.14-13.876-10.14-38.426,0-21.348,8.806-37.092a77.376,77.376,0,0,1,23.216-25.884,100.319,100.319,0,0,1,33.089-14.944,151.561,151.561,0,0,1,37.893-4.8,152.106,152.106,0,0,1,50.7,8.806,82.83,82.83,0,0,1,40.561,30.154Z" transform="translate(986.04 570.581)"/><path d="M752.544-89.092q3.2,28.82,22.415,44.831T821.391-28.25q24.017,0,40.294-9.873a111.7,111.7,0,0,0,28.553-24.817l45.9,34.691Q913.722-.5,885.969,11.244A147.8,147.8,0,0,1,827.8,22.985a153.753,153.753,0,0,1-54.437-9.607,130.569,130.569,0,0,1-44.3-27.219,129.157,129.157,0,0,1-29.62-42.429Q688.5-81.086,688.5-111.507t10.941-55.238a129.156,129.156,0,0,1,29.62-42.429,130.569,130.569,0,0,1,44.3-27.219A153.753,153.753,0,0,1,827.8-246q26.685,0,48.834,9.34a104.731,104.731,0,0,1,37.893,26.952q15.744,17.612,24.55,43.5t8.806,59.508v17.612Zm131.29-48.033q-.534-28.286-17.612-44.564t-47.5-16.278q-28.82,0-45.631,16.545t-20.547,44.3Z" transform="translate(1029.783 577.861)"/></g></g></svg>